HIERARCHY
ROOT Hips
{
	OFFSET 0.000000 0.000000 0.000000
	CHANNELS 6 Xposition Yposition Zposition Zrotation Yrotation Xrotation 
	JOINT LHipJoint
	{
		OFFSET 0.000000 0.000000 0.000000
		CHANNELS 3 Zrotation Yrotation Xrotation
		JOINT LeftUpLeg
		{
			OFFSET 1.363060 -1.794630 0.839290
			CHANNELS 3 Zrotation Yrotation Xrotation
			JOINT LeftLeg
			{
				OFFSET 2.448110 -6.726130 0.000000
				CHANNELS 3 Zrotation Yrotation Xrotation
				JOINT LeftFoot
				{
					OFFSET 2.562200 -7.039590 0.000000
					CHANNELS 3 Zrotation Yrotation Xrotation
					JOINT LeftToeBase
					{
						OFFSET 0.157640 -0.433110 2.322550
						CHANNELS 3 Zrotation Yrotation Xrotation
						End Site
						{
							OFFSET 0.000000 0.000000 0.000000
						}
					}
				}
			}
		}
	}
	JOINT RHipJoint
	{
		OFFSET 0.000000 0.000000 0.000000
		CHANNELS 3 Zrotation Yrotation Xrotation
		JOINT RightUpLeg
		{
			OFFSET -1.305520 -1.794630 0.839290
			CHANNELS 3 Zrotation Yrotation Xrotation
			JOINT RightLeg
			{
				OFFSET -2.542530 -6.985550 0.000000
				CHANNELS 3 Zrotation Yrotation Xrotation
				JOINT RightFoot
				{
					OFFSET -2.568260 -7.056230 0.000000
					CHANNELS 3 Zrotation Yrotation Xrotation
					JOINT RightToeBase
					{
						OFFSET -0.164730 -0.452590 2.363150
						CHANNELS 3 Zrotation Yrotation Xrotation
						End Site
						{
							OFFSET 0.000000 0.000000 0.000000
						}
					}
				}
			}
		}
	}
	JOINT LowerBack
	{
		OFFSET 0.000000 0.000000 0.000000
		CHANNELS 3 Zrotation Yrotation Xrotation
		JOINT Spine
		{
			OFFSET 0.028270 2.035590 -0.193380
			CHANNELS 3 Zrotation Yrotation Xrotation
			JOINT Spine1
			{
				OFFSET 0.056720 2.048850 -0.042750
				CHANNELS 3 Zrotation Yrotation Xrotation
				JOINT Neck
				{
					OFFSET 0.000000 0.000000 0.000000
					CHANNELS 3 Zrotation Yrotation Xrotation
					JOINT Neck1
					{
						OFFSET -0.054170 1.746240 0.172020
						CHANNELS 3 Zrotation Yrotation Xrotation
						JOINT Head
						{
							OFFSET 0.104070 1.761360 -0.123970
							CHANNELS 3 Zrotation Yrotation Xrotation
							End Site
							{
								OFFSET 0.000000 0.000000 0.000000
							}
						}
					}
				}
				JOINT LeftShoulder
				{
					OFFSET 0.000000 0.000000 0.000000
					CHANNELS 3 Zrotation Yrotation Xrotation
					JOINT LeftArm
					{
						OFFSET 3.362410 1.200890 -0.311210
						CHANNELS 3 Zrotation Yrotation Xrotation
						JOINT LeftForeArm
						{
							OFFSET 4.983000 -0.000000 -0.000000
							CHANNELS 3 Zrotation Yrotation Xrotation
							JOINT LeftHand
							{
								OFFSET 3.483560 -0.000000 -0.000000
								CHANNELS 3 Zrotation Yrotation Xrotation
								JOINT LeftFingerBase
								{
									OFFSET 0.000000 0.000000 0.000000
									CHANNELS 3 Zrotation Yrotation Xrotation
									JOINT LeftHandIndex1
									{
										OFFSET 0.715260 -0.000000 -0.000000
										CHANNELS 3 Zrotation Yrotation Xrotation
										End Site
										{
											OFFSET 0.000000 0.000000 0.000000
										}
									}
								}
								JOINT LThumb
								{
									OFFSET 0.000000 0.000000 0.000000
									CHANNELS 3 Zrotation Yrotation Xrotation
									End Site
									{
										OFFSET 0.000000 0.000000 0.000000
									}
								}
							}
						}
					}
				}
				JOINT RightShoulder
				{
					OFFSET 0.000000 0.000000 0.000000
					CHANNELS 3 Zrotation Yrotation Xrotation
					JOINT RightArm
					{
						OFFSET -3.136600 1.374050 -0.404650
						CHANNELS 3 Zrotation Yrotation Xrotation
						JOINT RightForeArm
						{
							OFFSET -5.241900 -0.000000 -0.000000
							CHANNELS 3 Zrotation Yrotation Xrotation
							JOINT RightHand
							{
								OFFSET -3.444170 -0.000000 -0.000000
								CHANNELS 3 Zrotation Yrotation Xrotation
								JOINT RightFingerBase
								{
									OFFSET 0.000000 0.000000 0.000000
									CHANNELS 3 Zrotation Yrotation Xrotation
									JOINT RightHandIndex1
									{
										OFFSET -0.622530 -0.000000 -0.000000
										CHANNELS 3 Zrotation Yrotation Xrotation
										End Site
										{
											OFFSET 0.000000 0.000000 0.000000
										}
									}
								}
								JOINT RThumb
								{
									OFFSET 0.000000 0.000000 0.000000
									CHANNELS 3 Zrotation Yrotation Xrotation
									End Site
									{
										OFFSET 0.000000 0.000000 0.000000
									}
								}
							}
						}
					}
				}
			}
		}
	}
}
MOTION
Frames: 6
Frame Time: 0.033333
4.611907 16.925463 -27.276810 89.285336 -32.906315 -33.143478 -113.558449 -49.230194 77.021059 7.709948 20.593777 -52.921535 -82.723671 62.940506 -71.147426 -38.081099 17.716374 -14.209019 -0.629420 0.250707 -72.979312 34.018091 -9.558441 -103.544360 65.533712 -77.342009 -100.579686 104.464813 -46.454956 -101.531503 0.386596 -6.512997 -13.677485 -1.324217 0.233991 -6.217712 -52.420611 78.522468 43.878497 -170.894489 71.620933 -178.574753 170.777087 78.276748 162.313260 -23.964770 17.173854 5.792240 13.720353 -13.992829 -6.093410 0.405915 -0.502712 0.476222 78.588143 54.647846 -42.334174 -124.693723 85.548362 -162.955784 -40.678818 16.391528 -107.527834 -22.149289 -14.869151 47.202848 1.617868 15.177183 18.334614 -0.433275 -0.405744 0.417587 0.312295 0.465736 -0.451514 130.215829 64.313402 151.088371 43.425387 40.698103 148.954249 -20.079885 -27.668802 106.843845 -18.738547 27.721816 -62.715387 -5.378261 4.222923 -78.927416 -0.468269 0.421013 -0.532717 -0.455872 -0.403608 -0.347222 
4.457268 17.040783 -26.687843 90.164388 -33.847942 -33.190185 -113.688112 -50.447214 75.093104 7.117915 22.714189 -52.222818 -86.127752 66.005372 -70.477800 -40.744168 21.366808 -8.757055 0.025143 0.492284 -71.183198 33.941522 -9.707828 -105.340440 71.518286 -79.513466 -106.884434 107.333114 -47.571773 -100.354074 2.708253 -5.217013 -11.361238 -1.201720 0.225398 -4.500440 -47.417369 76.410110 49.880877 -167.640599 70.832256 -173.864549 170.551082 78.456180 161.753815 -21.361277 12.311723 10.223792 19.514273 -19.525795 -6.093081 0.563671 -0.590003 0.427781 77.828427 55.286759 -44.252967 176.436489 86.441119 136.871525 -37.809309 15.588884 -106.075848 -22.333171 -14.307649 41.722823 -0.349300 17.184110 14.127822 -0.516087 -0.513649 0.378353 0.405190 0.413139 -0.431318 125.612009 62.994876 146.681742 40.163247 43.610979 145.323078 -19.874159 -25.819063 109.118202 -16.968710 28.210196 -56.720667 2.956530 14.687792 -86.055561 -0.629708 0.620850 -0.540290 -0.491538 -0.512891 -0.422440 
4.279159 17.165221 -26.124699 90.270490 -35.020271 -32.169244 -110.712462 -51.889553 70.970388 5.811725 24.702921 -50.604195 -89.296577 66.053716 -67.863564 -42.385632 25.805634 -6.689402 2.058203 0.855557 -65.821537 33.033662 -10.019841 -104.985935 87.735873 -77.778754 -125.058164 107.553954 -50.553853 -99.478367 1.822848 -4.443076 -10.372041 -0.770522 0.007189 -3.430379 -50.365263 76.021865 47.809929 -168.962898 71.349786 -174.507970 -177.356723 77.798556 174.373588 -17.606007 8.268106 16.852135 22.766713 -12.943796 -7.400741 0.457627 -0.497583 0.508514 78.769168 54.231079 -44.523692 161.943435 80.602696 119.694843 -38.962152 13.469601 -107.493828 -11.950538 -13.192661 40.281688 -7.327431 13.125991 3.488257 -0.456838 -0.610355 0.657950 0.450157 0.458314 -0.593254 119.236661 61.358995 138.983084 37.020067 46.111467 142.877860 -17.919677 -26.190996 111.523216 -23.399365 33.277684 -45.953511 11.987627 23.582731 -78.276573 -0.393361 0.345626 -0.438895 -0.512055 -0.585122 -0.598697 
4.101165 17.279646 -25.590736 89.456779 -35.264538 -31.289725 -109.636221 -50.211718 70.058802 9.352974 26.198059 -50.025396 -94.937092 67.768060 -67.217389 -41.692975 29.303136 -2.626250 3.325263 0.910766 -57.517909 31.877698 -11.812868 -104.903624 95.677294 -76.228323 -135.911664 110.461363 -54.608691 -103.248893 -0.007307 -3.288606 -9.695156 -0.234071 -0.116456 -5.227959 -48.220740 75.633064 51.533473 -168.121880 72.770477 -172.337280 -174.475882 77.228357 178.165768 -20.669276 8.561293 17.449052 28.331615 -8.111924 -6.250177 0.495563 -0.595793 0.374733 79.796171 54.680626 -40.878532 163.003630 77.118322 120.194059 -39.796586 9.978298 -112.362404 -10.612419 -12.153184 47.918843 -10.912619 7.969876 0.616822 -0.647698 -0.389005 0.548091 0.626472 0.457792 -0.529618 118.238634 59.272252 137.662239 34.709650 47.911245 139.968630 -17.394453 -22.156292 116.116026 -19.894470 33.592559 -37.675587 15.570449 30.875327 -77.854766 -0.476559 0.619555 -0.614262 -0.610530 -0.409744 -0.451872 
3.935486 17.379204 -25.089479 89.394015 -36.146824 -30.217361 -109.849719 -48.785113 69.867478 17.111520 29.449542 -47.521394 -103.393350 67.475372 -66.583196 -34.120577 30.174793 0.815866 4.205921 0.710027 -46.628519 32.335549 -11.352072 -104.671385 84.610931 -75.721656 -125.952601 111.798748 -54.582372 -106.315412 -1.524413 -4.134864 -9.204411 0.419147 -0.365101 -6.511211 -48.668055 76.687015 51.531095 -171.626873 74.734719 -176.084827 179.480525 76.797151 172.255103 -24.770788 6.661492 18.384589 26.328144 -0.401273 -4.358422 0.682719 -0.267510 0.567294 81.870046 53.621872 -37.784227 154.047202 73.841290 114.289313 -37.407369 5.546622 -116.019711 -9.750054 -8.311993 51.729716 -12.678309 4.620306 -1.759855 -0.484788 -0.483198 0.577167 0.440026 0.529376 -0.461108 119.533759 58.026285 137.358600 35.941177 47.724179 141.340393 -18.489926 -18.041738 118.619865 -29.445270 39.341746 -38.875328 18.948447 35.202232 -76.995452 -0.553771 0.629119 -0.332237 -0.340386 -0.504385 -0.528534 
3.771840 17.465925 -24.620636 89.904708 -36.379478 -29.103576 -110.930765 -47.129667 69.545185 25.591684 31.806889 -44.476704 -111.570923 68.454946 -66.993193 -30.213092 26.311350 -1.286357 3.647083 0.414119 -37.030383 30.729312 -11.605806 -103.891161 86.480411 -74.748356 -128.722660 113.128935 -54.784076 -107.194038 -3.796539 -5.703266 -7.290251 1.130525 -0.561689 -7.956517 -49.501618 77.591316 51.881160 -170.240154 75.397817 -175.967774 172.744622 77.823601 164.449415 -25.008068 8.681447 18.332801 25.525421 2.546709 -0.800401 0.404055 -0.661073 0.481666 83.348154 54.236584 -32.937473 150.141739 75.319691 114.329144 -30.589421 4.041418 -120.333250 -17.511238 -2.190814 55.433168 -12.846779 1.797291 2.579741 -0.454616 -0.465798 0.628350 0.609293 0.462037 -0.573863 122.649512 56.696392 140.492664 37.415315 48.919442 140.293497 -19.382688 -15.704020 122.252321 -37.394154 40.618765 -41.657836 17.339880 37.669549 -78.855035 -0.502160 0.504996 -0.568580 -0.664176 -0.544062 -0.492940 
